<svg width="60" height="60" viewBox="0 0 60 60" fill="none" xmlns="http://www.w3.org/2000/svg">
<path d="M45.315 35.6721C41.1446 35.6721 37.752 39.0648 37.752 43.2352C37.752 47.4055 41.1446 50.7982 45.315 50.7982C49.4861 50.7982 52.878 47.4055 52.878 43.2352C52.878 39.0648 49.4854 35.6721 45.315 35.6721ZM45.315 47.0167C43.2295 47.0167 41.5335 45.3206 41.5335 43.2352C41.5335 41.1497 43.2295 39.4536 45.315 39.4536C47.4005 39.4536 49.0965 41.1497 49.0965 43.2352C49.0965 45.3208 47.4005 47.0167 45.315 47.0167Z" fill="#078943"/>
<path d="M19.4749 35.6721C15.3046 35.6721 11.9119 39.0648 11.9119 43.2352C11.9119 47.4055 15.3046 50.7982 19.4749 50.7982C23.6453 50.7982 27.038 47.4055 27.038 43.2352C27.038 39.0648 23.6453 35.6721 19.4749 35.6721ZM19.4749 47.0167C17.3894 47.0167 15.6934 45.3206 15.6934 43.2352C15.6934 41.1497 17.3894 39.4536 19.4749 39.4536C21.5598 39.4536 23.2564 41.1497 23.2564 43.2352C23.2564 45.3208 21.5604 47.0167 19.4749 47.0167Z" fill="#078943"/>
<path d="M50.4082 14.0244C50.0868 13.3859 49.4332 12.9832 48.7185 12.9832H38.7605V16.7647H47.5525L52.701 27.005L56.0805 25.3058L50.4082 14.0244Z" fill="#078943"/>
<path d="M39.6429 41.4077H25.3362V45.1892H39.6429V41.4077Z" fill="#078943"/>
<path d="M13.8024 41.4077H7.24788C6.20351 41.4077 5.35718 42.2542 5.35718 43.2984C5.35718 44.3428 6.20362 45.1891 7.24788 45.1891H13.8025C14.8469 45.1891 15.6932 44.3427 15.6932 43.2984C15.6932 42.254 14.8468 41.4077 13.8024 41.4077Z" fill="#078943"/>
<path d="M59.6029 29.8487L55.8839 25.0588C55.5266 24.5974 54.9751 24.3276 54.3908 24.3276H40.6512V11.0924C40.6512 10.048 39.8048 9.20166 38.7605 9.20166H7.24788C6.20351 9.20166 5.35718 10.0481 5.35718 11.0924C5.35718 12.1366 6.20362 12.9831 7.24788 12.9831H36.8697V26.2183C36.8697 27.2627 37.7162 28.109 38.7604 28.109H53.4649L56.2184 31.6561V41.4074H50.9873C49.9429 41.4074 49.0966 42.2538 49.0966 43.2981C49.0966 44.3424 49.943 45.1888 50.9873 45.1888H58.1091C59.1535 45.1888 59.9998 44.3423 59.9999 43.2981V31.0084C59.9999 30.5886 59.86 30.1802 59.6029 29.8487Z" fill="#078943"/>
<path d="M13.6764 31.8279H4.97884C3.93446 31.8279 3.08813 32.6743 3.08813 33.7186C3.08813 34.763 3.93458 35.6093 4.97884 35.6093H13.6763C14.7206 35.6093 15.567 34.7628 15.567 33.7186C15.5671 32.6743 14.7206 31.8279 13.6764 31.8279Z" fill="#078943"/>
<path d="M18.0252 24.3906H1.8907C0.846445 24.3906 0 25.2371 0 26.2814C0 27.3258 0.846445 28.1721 1.8907 28.1721H18.0252C19.0696 28.1721 19.9159 27.3257 19.9159 26.2814C19.9159 25.2372 19.0696 24.3906 18.0252 24.3906Z" fill="#078943"/>
<path d="M21.1133 16.9539H4.97884C3.93446 16.9539 3.08813 17.8003 3.08813 18.8446C3.08813 19.8889 3.93458 20.7353 4.97884 20.7353H21.1133C22.1577 20.7353 23.004 19.8888 23.004 18.8446C23.0042 17.8003 22.1577 16.9539 21.1133 16.9539Z" fill="#078943"/>
</svg>
