<svg width="80" height="79" viewBox="0 0 80 79" fill="none" xmlns="http://www.w3.org/2000/svg">
<g clip-path="url(#clip0_0_108)">
<path d="M79.3133 0.678024C78.3982 -0.225845 76.914 -0.225845 75.9987 0.678024L69.1721 7.41924C68.7524 7.22174 68.3096 7.06266 67.8473 6.94864L46.6331 1.77307C44.2509 1.18504 41.6922 1.88478 39.9558 3.59948L2.05629 40.9636C-0.685106 43.6709 -0.685106 48.0761 2.05629 50.7835L28.5739 76.9695C31.3155 79.6768 35.7764 79.677 38.5181 76.9695L76.3552 39.5436C78.0916 37.8289 78.8004 35.3022 78.2046 32.9496L72.9637 12.0008C72.848 11.5444 72.6871 11.1069 72.4871 10.6925L79.3136 3.95127C80.2286 3.0474 80.2286 1.58189 79.3133 0.678024ZM73.6566 34.0726C73.8552 34.8567 73.619 35.6989 73.0402 36.2706L35.2031 73.6963C34.2892 74.5988 32.8022 74.5988 31.8883 73.6963L5.37082 47.5101C4.45692 46.6077 4.45692 45.1392 5.37082 44.2367L43.2704 6.87273C43.7137 6.43499 44.3178 6.19567 44.9331 6.19567C45.1212 6.19567 45.3104 6.21804 45.4962 6.26387L65.4227 11.1216L59.7782 16.6956C57.1649 15.4664 53.937 15.9173 51.7767 18.0506C49.035 20.758 49.035 25.163 51.7767 27.8705C53.1473 29.2241 54.9481 29.901 56.7487 29.901C58.5492 29.901 60.3499 29.2243 61.7206 27.8705C63.8813 25.7369 64.3377 22.5494 63.0927 19.9688L68.7373 14.3948L73.6566 34.0726ZM58.406 24.5974C57.4923 25.4997 56.0053 25.4999 55.0913 24.5974C54.1776 23.6951 54.1776 22.2265 55.0913 21.3241C55.5484 20.8728 56.1484 20.6474 56.7487 20.6474C57.3487 20.6474 57.949 20.873 58.4057 21.324L58.4059 21.3241L58.406 21.3243C59.3199 22.2266 59.3198 23.6951 58.406 24.5974Z" fill="#078943"/>
<path d="M38.5177 27.8706C35.7762 25.1633 31.3152 25.1633 28.5735 27.8706C25.8321 30.5778 25.8321 34.983 28.5735 37.6905C31.3151 40.3977 35.7762 40.3977 38.5177 37.6905C41.2594 34.983 41.2594 30.578 38.5177 27.8706ZM35.2032 34.4171C34.2893 35.3195 32.8023 35.3195 31.8885 34.4171C30.9748 33.5146 30.9744 32.0461 31.8883 31.1438C32.8022 30.2415 34.2891 30.2413 35.2032 31.1438C36.1169 32.0461 36.1169 33.5146 35.2032 34.4171Z" fill="#078943"/>
<path d="M41.8323 50.7833C39.0844 48.0696 34.6367 48.0693 31.8883 50.7833C29.1466 53.4907 29.1466 57.8957 31.8883 60.6032C34.6364 63.3168 39.0841 63.3173 41.8323 60.6032C44.5741 57.8957 44.5741 53.4907 41.8323 50.7833ZM38.5177 57.3299C37.6019 58.2344 36.1189 58.2346 35.203 57.3299C34.2892 56.4276 34.2892 54.959 35.203 54.0567C36.1189 53.1522 37.6017 53.152 38.5177 54.0567C39.4314 54.959 39.4314 56.4273 38.5177 57.3299Z" fill="#078943"/>
<path d="M52.4487 42.3447C52.3058 41.0742 51.1467 40.1586 49.8603 40.2998L20.0282 43.573C18.7416 43.7142 17.8144 44.8584 17.9574 46.1291C18.0907 47.3127 19.1054 48.1883 20.2841 48.1883C20.3705 48.1883 20.458 48.1835 20.5458 48.174L50.3781 44.9007C51.6647 44.7594 52.5919 43.6151 52.4487 42.3447Z" fill="#078943"/>
</g>
<defs>
<clipPath id="clip0_0_108">
<rect width="80" height="79" fill="white"/>
</clipPath>
</defs>
</svg>
