<svg width="60" height="60" viewBox="0 0 60 60" fill="none" xmlns="http://www.w3.org/2000/svg">
<path d="M53.4375 9.375H6.5625C2.94398 9.375 0 12.319 0 15.9375V44.0625C0 47.681 2.94398 50.625 6.5625 50.625H53.4375C57.056 50.625 60 47.681 60 44.0625V15.9375C60 12.319 57.056 9.375 53.4375 9.375ZM6.5625 13.125H53.4375C54.9882 13.125 56.25 14.3868 56.25 15.9375V19.6875H3.75V15.9375C3.75 14.3868 5.01176 13.125 6.5625 13.125ZM53.4375 46.875H6.5625C5.01176 46.875 3.75 45.6132 3.75 44.0625V23.4375H56.25V44.0625C56.25 45.6132 54.9882 46.875 53.4375 46.875Z" fill="#078943"/>
<path d="M13.125 41.25H11.25C10.2145 41.25 9.375 40.4105 9.375 39.375V37.5C9.375 36.4645 10.2145 35.625 11.25 35.625H13.125C14.1605 35.625 15 36.4645 15 37.5V39.375C15 40.4105 14.1605 41.25 13.125 41.25Z" fill="#078943"/>
</svg>
