<svg width="80" height="80" viewBox="0 0 80 80" fill="none" xmlns="http://www.w3.org/2000/svg">
<path d="M75.7031 62.0312H72.2508C71.7556 61.5319 71.2111 61.0816 70.625 60.6884V41.3281C70.625 38.9588 68.6973 37.0312 66.3281 37.0312H64.375V22.5781C64.375 20.2087 62.4473 18.2812 60.0781 18.2812H45.625V16.7969C45.625 14.4275 43.6973 12.5 41.3281 12.5H20.5742C19.9778 5.50781 14.097 0 6.95313 0H4.29688C1.9275 0 0 1.9275 0 4.29688C0 6.66625 1.9275 8.59375 4.29688 8.59375H6.95313C9.75313 8.59375 12.0313 10.8719 12.0313 13.6719V42.1094C12.0313 42.7566 12.5559 43.2812 13.2031 43.2812C13.8503 43.2812 14.375 42.7566 14.375 42.1094V13.6719C14.375 9.57953 11.0455 6.25 6.95313 6.25H4.29688C3.21984 6.25 2.34375 5.37391 2.34375 4.29688C2.34375 3.21984 3.21984 2.34375 4.29688 2.34375H6.95313C13.1995 2.34375 18.2813 7.42547 18.2813 13.6719V50.7031C18.2813 54.3078 19.6736 57.6947 22.1505 60.2341C20.9981 60.8759 19.9772 61.7262 19.1411 62.7356C16.0988 59.4912 14.375 55.1738 14.375 50.7031V46.7969C14.375 46.1497 13.8503 45.625 13.2031 45.625C12.5559 45.625 12.0313 46.1497 12.0313 46.7969V50.7031C12.0313 55.9609 14.1352 61.0319 17.8292 64.7505C17.1202 66.1673 16.7188 67.7637 16.7188 69.4531C16.7188 75.2688 21.45 80 27.2656 80C32.685 80 37.1608 75.8909 37.7458 70.625H54.2853C54.8703 75.8909 59.3463 80 64.7655 80C70.1847 80 74.6606 75.8909 75.2456 70.625H75.703C78.0722 70.625 79.9998 68.6975 79.9998 66.3281C79.9998 63.9588 78.0723 62.0312 75.7031 62.0312ZM68.2813 41.3281V59.5109C67.1809 59.1206 65.9981 58.9062 64.7656 58.9062C61.8417 58.9062 59.1927 60.1028 57.2805 62.0312H45.625V39.375H51.6145V50.7144C51.6145 51.7337 52.1761 52.6634 53.0802 53.1405C53.4805 53.3517 53.9163 53.4562 54.3502 53.4562C54.8839 53.4562 55.4147 53.2978 55.872 52.9852C56.1256 52.8119 56.3989 52.6564 56.9531 52.6564C57.5074 52.6564 57.7806 52.812 58.0341 52.9852C58.8636 53.5522 59.9333 53.6119 60.8261 53.1406C61.7302 52.6636 62.2917 51.7341 62.2917 50.7145V39.375H66.3281C67.4052 39.375 68.2813 40.2511 68.2813 41.3281ZM54.2855 68.2812H37.7458C37.59 66.8784 37.1586 65.5578 36.5059 64.375H55.5252C54.8727 65.5578 54.4413 66.8784 54.2855 68.2812ZM53.9583 39.375H59.948V50.7144C59.948 50.9305 59.7972 51.0334 59.7323 51.0677C59.6422 51.1152 59.5039 51.1508 59.3569 51.0503C58.8545 50.7069 58.1272 50.3125 56.9531 50.3125C55.7791 50.3125 55.0517 50.7067 54.5492 51.0503C54.4022 51.1509 54.2638 51.115 54.1739 51.0675C54.1091 51.0333 53.9583 50.9305 53.9583 50.7142V39.375ZM28.9583 14.8438H34.9478V36.3394C34.9478 36.5555 34.797 36.6584 34.7322 36.6927C34.6419 36.74 34.5036 36.7758 34.3569 36.6755C33.8545 36.3319 33.1272 35.9377 31.953 35.9377C30.7788 35.9377 30.0516 36.3319 29.5491 36.6755C29.4022 36.7759 29.2639 36.7402 29.1738 36.6927C29.1089 36.6584 28.9581 36.5556 28.9581 36.3394V14.8438H28.9583ZM20.625 50.7031V14.8438H26.6145V36.3394C26.6145 37.3589 27.1761 38.2886 28.0802 38.7655C28.4805 38.9767 28.9163 39.0812 29.35 39.0812C29.8839 39.0812 30.4145 38.9228 30.872 38.61C31.1255 38.4367 31.3988 38.2812 31.953 38.2812C32.5072 38.2812 32.7805 38.4367 33.0339 38.61C33.8631 39.177 34.933 39.2367 35.8259 38.7655C36.73 38.2884 37.2916 37.3589 37.2916 36.3394V14.8438H41.3281C42.4052 14.8438 43.2813 15.7198 43.2813 16.7969V26.3384C43.2813 26.9856 43.8058 27.5103 44.4531 27.5103C45.1005 27.5103 45.625 26.9856 45.625 26.3384V20.625H60.0781C61.1552 20.625 62.0313 21.5011 62.0313 22.5781V37.0312H45.625V31.0259C45.625 30.3787 45.1005 29.8541 44.4531 29.8541C43.8058 29.8541 43.2813 30.3787 43.2813 31.0259V62.0312H34.7508C32.8386 60.1028 30.1895 58.9062 27.2656 58.9062C26.3223 58.9062 25.4083 59.0327 24.5377 59.2659C22.0452 57.1089 20.625 54.0169 20.625 50.7031ZM27.2656 77.6562C22.7423 77.6562 19.0625 73.9764 19.0625 69.4531C19.0625 64.9298 22.7423 61.25 27.2656 61.25C31.7889 61.25 35.4688 64.9298 35.4688 69.4531C35.4688 73.9764 31.7889 77.6562 27.2656 77.6562ZM64.7656 77.6562C60.2425 77.6562 56.5625 73.9764 56.5625 69.4531C56.5625 64.9298 60.2425 61.25 64.7656 61.25C69.2888 61.25 72.9688 64.9298 72.9688 69.4531C72.9688 73.9764 69.2888 77.6562 64.7656 77.6562ZM75.7031 68.2812H75.2458C75.09 66.8784 74.6586 65.5578 74.0059 64.375H75.7031C76.7802 64.375 77.6563 65.2511 77.6563 66.3281C77.6563 67.4052 76.7802 68.2812 75.7031 68.2812Z" fill="#078943"/>
<path d="M27.2656 65.1562C24.8963 65.1562 22.9688 67.0838 22.9688 69.4531C22.9688 71.8225 24.8963 73.75 27.2656 73.75C29.635 73.75 31.5625 71.8225 31.5625 69.4531C31.5625 67.0838 29.635 65.1562 27.2656 65.1562ZM27.2656 71.4062C26.1886 71.4062 25.3125 70.5302 25.3125 69.4531C25.3125 68.3761 26.1886 67.5 27.2656 67.5C28.3427 67.5 29.2188 68.3761 29.2188 69.4531C29.2188 70.5302 28.3427 71.4062 27.2656 71.4062Z" fill="#078943"/>
<path d="M64.7656 65.1562C62.3964 65.1562 60.4688 67.0838 60.4688 69.4531C60.4688 71.8225 62.3964 73.75 64.7656 73.75C67.1348 73.75 69.0625 71.8225 69.0625 69.4531C69.0625 67.0838 67.1348 65.1562 64.7656 65.1562ZM64.7656 71.4062C63.6886 71.4062 62.8125 70.5302 62.8125 69.4531C62.8125 68.3761 63.6886 67.5 64.7656 67.5C65.8427 67.5 66.7188 68.3761 66.7188 69.4531C66.7188 70.5302 65.8427 71.4062 64.7656 71.4062Z" fill="#078943"/>
</svg>
