<svg width="43" height="50" viewBox="0 0 43 50" fill="none" xmlns="http://www.w3.org/2000/svg">
<path d="M40.9833 8.09628L21.8427 0.149304C21.3632 -0.0497192 20.8242 -0.0498169 20.3448 0.149304L1.2042 8.09628C0.475195 8.39901 0 9.11073 0 9.90009V19.5607C0 32.8628 8.03994 44.8283 20.3557 49.8552C20.8287 50.0482 21.3587 50.0482 21.8318 49.8552C34.1474 44.8284 42.1875 32.8629 42.1875 19.5607V9.90009C42.1875 9.11073 41.7124 8.39901 40.9833 8.09628ZM38.2812 19.5607C38.2812 30.8688 31.6406 41.2787 21.0938 45.9254C10.8287 41.4028 3.90625 31.1753 3.90625 19.5607V11.204L21.0938 4.06786L38.2812 11.204V19.5607ZM18.935 26.1441L27.3299 17.7493C28.0926 16.9866 29.3292 16.9865 30.092 17.7493C30.8548 18.5121 30.8547 19.7487 30.0919 20.5114L20.316 30.2873C19.5531 31.0502 18.3165 31.0499 17.5539 30.2873L12.0955 24.8289C11.3327 24.0661 11.3327 22.8295 12.0955 22.0668C12.8583 21.3041 14.0949 21.304 14.8576 22.0668L18.935 26.1441Z" fill="#078943"/>
</svg>
