<svg width="80" height="80" viewBox="0 0 80 80" fill="none" xmlns="http://www.w3.org/2000/svg">
<g clip-path="url(#clip0_0_104)">
<path d="M49.0485 32.5688L37.0284 43.922L31.2597 37.9872C30.6202 37.3287 29.5671 37.3138 28.9093 37.9533C28.2509 38.5935 28.236 39.6459 28.8755 40.3043L35.7943 47.4068C36.4371 48.0535 37.4758 48.0756 38.1453 47.4563L51.3662 34.9862C51.6873 34.6834 51.8749 34.2653 51.8872 33.8244C51.8996 33.3835 51.7361 32.9556 51.4327 32.6352C50.7892 31.9664 49.7284 31.9371 49.0485 32.5688Z" fill="#078943"/>
<path d="M40.129 15.0966C26.3916 15.0966 15.2214 26.2667 15.2214 40.0041C15.2214 53.7421 26.3916 64.9123 40.129 64.9123C53.867 64.9123 65.0371 53.7421 65.0371 40.0041C65.0371 26.2667 53.867 15.0966 40.129 15.0966ZM40.129 61.5779C28.2255 61.5779 18.5558 51.8913 18.5558 40.0041C18.5558 28.1169 28.2255 18.4309 40.129 18.4309C52.0442 18.4309 61.7028 28.0896 61.7028 40.0041C61.7028 51.9186 52.0442 61.5779 40.129 61.5779Z" fill="#078943"/>
<path d="M74.4065 30.8345L74.9568 20.948C74.9952 20.2844 74.6345 19.6611 74.0399 19.3642L65.237 14.9129L60.7857 6.11002C60.4829 5.52065 59.8636 5.16181 59.2019 5.19307L49.2984 5.72709L41.0458 0.274866C40.4897 -0.0917848 39.7687 -0.0917848 39.2119 0.274866L30.9593 5.72709L21.0734 5.17679C20.4092 5.13771 19.7866 5.4985 19.4896 6.09374L15.0377 14.8966L6.23547 19.3479C5.64544 19.6501 5.28725 20.2694 5.31851 20.9317L5.86816 30.8183L0.41659 39.0708C0.0499388 39.627 0.0499388 40.3479 0.41659 40.9048L5.85188 49.1736L5.30158 59.0602C5.26316 59.7238 5.6233 60.347 6.21853 60.644L15.0214 65.0953L19.4727 73.8981C19.7749 74.4882 20.3942 74.8463 21.0565 74.8151L30.9431 74.2648L39.1956 79.7164C39.7486 80.0947 40.4766 80.0947 41.0295 79.7164L49.2821 74.2648L59.1687 74.8151C59.8323 74.8535 60.4549 74.4927 60.7525 73.8981L65.2038 65.0953L74.0067 60.644C74.596 60.3412 74.9549 59.7225 74.9236 59.0602L74.3733 49.1736L79.8249 40.921C80.1915 40.3649 80.1915 39.6433 79.8249 39.0871L74.4065 30.8345ZM71.3053 47.8066C71.1021 48.1049 71.0077 48.4638 71.0389 48.8239L71.5554 58.1764L63.2364 62.3776C62.9192 62.5365 62.662 62.7944 62.5031 63.1116L58.3012 71.4306L48.9487 70.9141C48.5905 70.9011 48.2369 70.9936 47.9314 71.1805L40.1289 76.3325L32.327 71.1805C32.056 70.9975 31.7369 70.8985 31.41 70.8972H31.3266L21.9735 71.4143L17.7723 63.0946C17.6134 62.7775 17.3561 62.5202 17.0383 62.3613L8.70238 58.1764L9.21947 48.8239C9.2325 48.4657 9.13937 48.1121 8.95246 47.8066L3.80111 40.0041L8.95246 32.2015C9.1563 31.9039 9.25073 31.5444 9.21947 31.1849L8.70238 21.8317L17.022 17.6306C17.3392 17.4716 17.5964 17.2144 17.7553 16.8972L21.9565 8.57759L31.3097 9.09468C31.6672 9.10705 32.0209 9.01458 32.327 8.82767L40.1289 3.67632L47.9314 8.82767C48.2297 9.03151 48.5892 9.12594 48.9487 9.09468L58.3012 8.57759L62.5031 16.8972C62.662 17.2144 62.9192 17.4716 63.2364 17.6306L71.5554 21.8317L71.0389 31.1849C71.0259 31.5424 71.119 31.8961 71.3053 32.2015L76.4573 40.0041L71.3053 47.8066Z" fill="#078943"/>
</g>
<defs>
<clipPath id="clip0_0_104">
<rect width="80" height="80" fill="white"/>
</clipPath>
</defs>
</svg>
