<svg xmlns="http://www.w3.org/2000/svg" width="256" height="256" fill="none" style=""><rect id="backgroundrect" width="100%" height="100%" x="0" y="0" fill="none" stroke="none" class="" style=""/>


<g class="currentLayer" style=""><title>Layer 1</title><g filter="" id="svg_1" class="">
<circle cx="128" cy="128.26922988891602" r="128" fill="black" id="svg_2"/>
</g><path d="M107.88191955566407,160.09630651855468 L68.40191955566407,111.10230651855468 V147.88730651855468 C68.40191955566407,151.2173065185547 68.85091955566406,153.35730651855468 69.74891955566406,154.30930651855468 C70.48891955566407,155.2603065185547 72.23291955566407,155.7893065185547 74.98191955566406,155.89430651855469 H75.69491955566406 V158.27330651855468 H56.905919555664056 V155.89430651855469 H57.38191955566407 C60.024919555664056,155.89430651855469 61.794919555664066,155.3663065185547 62.69391955566407,154.30930651855468 C63.48591955566407,153.2523065185547 63.88291955566406,151.1113065185547 63.88291955566406,147.88730651855468 V106.10830651855468 L62.69391955566407,104.5223065185547 C60.42091955566406,101.45730651855467 58.33291955566406,99.92430651855469 56.43091955566406,99.92430651855469 H55.63791955566407 V97.4673065185547 H67.29191955566407 L103.75891955566405,142.17930651855468 V107.77330651855468 C103.75891955566405,104.70730651855467 103.33591955566405,102.5933065185547 102.49091955566405,101.43130651855469 C101.53991955566406,100.4263065185547 99.74291955566406,99.92430651855469 97.09991955566406,99.92430651855469 H96.46591955566407 V97.4673065185547 H115.17491955566408 V99.92430651855469 H114.46191955566405 C111.81891955566405,99.92430651855469 110.07491955566405,100.4263065185547 109.22891955566405,101.43130651855469 C108.43691955566408,102.38230651855469 107.98691955566406,104.49630651855469 107.88191955566407,107.77330651855468 V160.09630651855468 zM124.48791955566406,160.09630651855468 H119.49391955566406 L156.43691955566408,95.7233065185547 H161.51091955566406 L124.48791955566406,160.09630651855468 zM183.61691955566405,160.09630651855468 C178.01491955566405,160.09630651855468 172.83491955566407,159.2773065185547 168.07891955566407,157.63830651855469 L167.28591955566407,144.32030651855467 H170.29791955566407 L170.37791955566405,144.87530651855468 C171.16991955566405,148.9973065185547 172.80891955566406,152.14230651855468 175.29291955566407,154.30930651855468 C177.67091955566406,156.5283065185547 180.81591955566407,157.63830651855469 184.72691955566407,157.63830651855469 C188.21491955566407,157.63830651855469 191.14791955566406,156.47630651855468 193.52691955566405,154.1503065185547 C195.95791955566406,151.8253065185547 197.22591955566406,148.9973065185547 197.33191955566406,145.66730651855468 C197.33191955566406,141.5453065185547 194.16091955566407,137.3173065185547 187.81891955566405,132.98330651855468 L181.79391955566408,128.8613065185547 C175.92691955566406,124.79130651855468 172.06891955566405,121.6463065185547 170.21891955566406,119.4273065185547 C168.42191955566406,117.15430651855468 167.52391955566407,114.45930651855468 167.52391955566407,111.34030651855468 C167.52391955566407,106.7423065185547 169.39991955566407,102.93730651855469 173.15191955566405,99.92430651855469 C177.06291955566405,97.1233065185547 182.11091955566405,95.7233065185547 188.29391955566408,95.7233065185547 C193.26191955566406,95.7233065185547 198.20391955566407,96.56830651855469 203.11891955566406,98.2603065185547 L204.38791955566407,109.6763065185547 H201.29591955566406 L201.05791955566406,109.04130651855468 C198.99691955566405,101.7483065185547 194.21391955566406,98.10130651855468 186.70891955566407,98.10130651855468 C183.37891955566405,98.10130651855468 180.60391955566405,99.1053065185547 178.38491955566406,101.11430651855468 C176.21791955566405,103.1223065185547 175.13391955566405,105.68530651855468 175.13391955566405,108.80330651855468 C175.13391955566405,112.71430651855468 177.85591955566406,116.49330651855468 183.29991955566408,120.1403065185547 L191.94091955566407,126.1653065185547 C197.54291955566407,130.02330651855468 201.11091955566405,132.98330651855468 202.64391955566407,135.0443065185547 C204.33491955566407,137.3173065185547 205.17991955566407,140.0923065185547 205.17991955566407,143.36830651855468 C205.17991955566407,148.4423065185547 203.22491955566406,152.51230651855468 199.31391955566406,155.57730651855468 C195.61391955566407,158.4843065185547 190.38191955566407,159.9903065185547 183.61691955566405,160.09630651855468 z" fill="white" id="svg_3" class=""/></g></svg>